<svg width="40" height="40" viewBox="0 0 40 40" fill="none" xmlns="http://www.w3.org/2000/svg">
<path d="M38.8266 0.0488728C38.5397 0.122765 38.1527 0.323917 38.0479 0.451176C37.9978 0.508647 37.9022 0.791901 37.8294 1.08337C37.4287 2.69668 36.6454 4.16221 35.3841 5.6729C34.3004 6.96191 32.7522 8.32071 31.0947 9.4332C30.612 9.75751 29.9153 10.1926 29.6877 10.3158C29.5556 10.3856 29.6785 9.89298 30.0201 8.97753C30.6985 7.15896 30.7987 6.07931 30.4117 4.73283C30.1248 3.72707 29.7241 3.06204 29.0502 2.45037C27.9163 1.4323 26.3454 0.968422 24.014 0.968422C21.9011 0.964317 19.7655 1.30504 17.9578 1.92081C16.9833 2.25743 14.9024 3.09898 14.9479 3.14414C14.9615 3.15235 15.1801 3.1934 15.4397 3.23445C17.2656 3.52181 18.9732 4.14579 20.6671 5.14334C22.1242 6.00131 22.9894 6.80592 23.5768 7.86504C24.0094 8.64091 24.1961 9.47836 24.0049 9.80266C23.9001 9.98739 23.6998 10.0408 23.4083 9.97097C22.8665 9.83961 22.2335 9.34699 20.5897 7.76652C18.8503 6.09162 18.1763 5.57848 17.0926 5.10639C15.3896 4.35926 13.7594 4.26895 12.448 4.85188C11.806 5.13513 11.2823 5.49638 10.531 6.16962C9.59294 7.01117 7.33439 9.40036 7.03841 9.86834C7.0202 9.89708 7.13859 9.88476 7.3526 9.83961C8.08117 9.68361 8.80518 9.62614 10.0119 9.62204C11.5646 9.61793 12.5163 9.72056 14.0053 10.0531C16.0999 10.5128 18.3403 11.3955 20.0524 12.4299C20.831 12.902 21.2044 13.3413 21.1543 13.7313C21.127 13.9694 20.9859 14.1007 20.6671 14.1828C19.9704 14.3635 18.7091 13.9653 16.3595 12.8199C13.7867 11.5638 12.4708 11.1574 10.4536 10.9931C8.82339 10.8659 7.51198 11.0014 6.55574 11.4037C5.39914 11.8922 4.39281 13.0991 3.41835 15.1681C3.15425 15.7264 2.72622 16.7691 2.72622 16.8594C2.72622 16.884 2.88559 16.8306 3.08139 16.7444C3.7963 16.416 4.1879 16.3257 5.23066 16.2313C7.50287 16.0301 9.73865 16.0055 11.5236 16.1656C14.5472 16.4407 16.7192 17.077 17.0516 17.7871C17.1381 17.9719 17.129 18.0786 17.0288 18.2839C16.9651 18.4111 16.8922 18.4768 16.7238 18.5507C16.5143 18.641 16.4551 18.6492 15.7948 18.6451C15.0617 18.6369 15.1346 18.6451 11.7331 18.1771C9.00553 17.8036 8.20867 17.7256 7.13403 17.7256C6.6377 17.7256 6.06395 17.7502 5.76342 17.7871C4.10138 17.9842 2.84916 18.5548 2.08872 19.462C1.2873 20.4267 0.303742 23.481 0.0396374 25.8496C-0.0286655 26.4941 -0.0468796 26.4736 0.308296 26.1698C0.48133 26.022 0.754541 25.8332 0.913915 25.747C1.45123 25.4596 3.47755 24.5565 4.20612 24.2774C6.81529 23.2798 10.0164 22.6517 12.4708 22.6517C13.5955 22.6517 14.1783 22.7585 14.6883 23.0581C15.1665 23.3373 15.2211 23.5877 14.8614 23.8997C14.2102 24.4703 13.4133 24.6181 10.6038 24.7043C8.60027 24.7618 7.58028 24.8849 6.07306 25.238C2.86738 25.9851 0.800077 27.1674 0.426687 28.4605C0.235439 29.1296 0.458562 30.082 1.12793 31.449C1.52864 32.2618 1.729 32.8653 1.88382 33.715L1.91569 33.8751L2.03864 33.5919C2.5122 32.5081 3.74166 31.4244 5.95012 30.1354C7.23876 29.3841 8.19956 29.0188 8.96455 28.9859C9.36526 28.9654 9.4108 28.9736 9.55651 29.0639C9.8616 29.2487 9.84794 29.614 9.53374 29.9465C9.19678 30.3037 8.45456 30.6731 6.961 31.2397C6.54663 31.3956 6.0594 31.5968 5.87726 31.683C5.1487 32.036 4.06951 32.8694 3.58684 33.4482C3.21345 33.8998 3.07684 34.1625 3.05407 34.495C3.0222 34.9261 3.12693 35.3243 3.61416 36.6297C3.88737 37.3645 4.0604 37.9023 4.09683 38.1199C4.17879 38.6617 4.08772 39.2241 3.82362 39.7496L3.69612 40L5.33994 39.6387C6.2461 39.4417 7.12948 39.2611 7.31162 39.2364C7.54385 39.2036 7.9309 39.2036 8.65491 39.2323C10.3443 39.3021 10.7086 39.2282 11.2869 38.7069C11.9243 38.1281 12.2704 37.2619 12.448 35.7676C12.5527 34.9261 12.6347 34.4786 12.8123 33.8793C13.2084 32.5081 13.7412 31.486 14.0326 31.527C14.3013 31.564 14.4424 32.0812 14.4424 32.9966C14.4424 33.7068 14.3969 34.1297 14.1966 35.275C14.0417 36.1781 13.9006 36.72 13.6501 37.3727C13.4498 37.9023 13.0126 38.8382 12.744 39.3227C12.6438 39.4992 12.5709 39.647 12.5846 39.647C12.5983 39.647 12.6848 39.6141 12.7804 39.569C13.1037 39.4253 13.682 39.2775 14.5654 39.1174C16.4551 38.7726 17.2747 38.5263 17.6754 38.1773C18.0579 37.8448 18.404 37.2742 18.659 36.5599C18.9732 35.665 19.0278 35.0328 18.9095 33.6124C18.7911 32.1838 18.7865 29.614 18.9049 29.0557C19.0324 28.4482 19.1508 28.3332 19.5287 28.4358C20.0934 28.5877 20.5214 29.2117 20.6944 30.1354C20.7354 30.3694 20.7718 30.9277 20.7901 31.5845C20.831 33.1978 20.7263 34.0681 20.3256 35.5008C20.1753 36.0509 19.679 37.4548 19.4513 37.9967C19.4012 38.1116 21.6234 37.307 22.443 36.9088C23.8682 36.2233 24.6651 35.4515 25.0749 34.3719C25.2525 33.8998 25.2889 33.6494 25.2889 32.9351C25.2889 31.8431 25.1023 31.0303 24.4739 29.3349C23.9229 27.8529 23.2763 25.9933 23.1215 25.4637C22.9393 24.8315 22.8847 23.9859 23.0076 23.7683C23.1078 23.5918 23.3309 23.4727 23.5586 23.4727C24.1187 23.4769 24.6833 24.0351 25.1797 25.0696C25.4711 25.6854 26.2406 27.9227 26.5639 29.1173C27.1286 31.2027 27.1832 32.6764 26.7461 34.298C26.6869 34.5197 26.6413 34.7044 26.6459 34.7085C26.6505 34.7126 26.7871 34.6264 26.951 34.5197C29.6831 32.7134 30.8898 31.7979 31.3679 31.1699C31.5683 30.9112 31.8415 30.3653 31.9417 30.041C32.06 29.6592 32.06 28.7068 31.9417 28.2552C31.591 26.8841 30.5665 25.3652 28.95 23.8176C27.7752 22.6928 26.9555 21.4818 26.951 20.8742C26.951 20.7059 26.9738 20.6566 27.0876 20.5499C27.2196 20.4349 27.247 20.4267 27.4883 20.4432C28.1987 20.4924 29.4099 21.2026 30.5483 22.2371C32.5928 24.0967 33.7949 26.88 33.5081 29.0968C33.4899 29.2651 33.4762 29.4088 33.4807 29.417C33.499 29.4293 35.243 27.6887 35.63 27.27C36.5999 26.2232 37.1054 25.1107 37.1054 24.0228C37.1054 22.6722 36.058 21.1821 34.2548 19.9588C33.9589 19.7576 33.1711 19.2978 32.5063 18.9407C30.3206 17.7543 29.6512 17.3109 29.2687 16.7855C29.0001 16.4119 29.1458 16.0876 29.6239 16.0014C30.6576 15.8085 33.6538 16.7978 35.4888 17.9349C35.9852 18.2428 36.3904 18.5712 36.7912 18.9982C37.6245 19.8808 38.1208 20.7182 38.6262 22.1057C38.6945 22.2946 38.7674 22.4547 38.7902 22.467C38.8129 22.4793 38.9131 22.2617 39.0087 21.9867C40.0697 19.0269 40.2837 16.4324 39.628 14.3922C39.332 13.4562 38.9086 12.783 38.2665 12.2329C37.3057 11.3996 35.9943 10.9028 34.4598 10.7961C34.1729 10.7756 33.3077 10.7715 32.5291 10.7879C31.755 10.8043 31.1129 10.8166 31.1084 10.8125C31.1038 10.8084 31.2996 10.6853 31.5409 10.5416C31.7823 10.3938 32.3424 10.0325 32.7795 9.73698C36.7183 7.06865 39.2045 3.96517 39.9058 0.832953C40.0196 0.336232 40.006 0.221288 39.8193 0.0981344C39.6644 -0.00859903 39.1453 -0.0332298 38.8266 0.0488728Z" fill="#3F3B34"/>
</svg>
