<svg width="40" height="41" viewBox="0 0 40 41" fill="none" xmlns="http://www.w3.org/2000/svg">
<path d="M25.9375 8.08545C27.7609 8.08545 29.5095 8.80978 30.7989 10.0991C32.0882 11.3884 32.8125 13.1371 32.8125 14.9604V26.8354C32.8125 28.6588 32.0882 30.4075 30.7989 31.6968C29.5095 32.9861 27.7609 33.7104 25.9375 33.7104H14.0625C12.2391 33.7104 10.4905 32.9861 9.20114 31.6968C7.91183 30.4075 7.1875 28.6588 7.1875 26.8354V14.9604C7.1875 13.1371 7.91183 11.3884 9.20114 10.0991C10.4905 8.80978 12.2391 8.08545 14.0625 8.08545H25.9375ZM25.9375 5.58545H14.0625C11.5784 5.59287 9.19812 6.58297 7.44157 8.33952C5.68502 10.0961 4.69492 12.4763 4.6875 14.9604V26.8354C4.69492 29.3196 5.68502 31.6998 7.44157 33.4564C9.19812 35.2129 11.5784 36.203 14.0625 36.2104H25.9375C28.4216 36.203 30.8019 35.2129 32.5584 33.4564C34.315 31.6998 35.3051 29.3196 35.3125 26.8354V14.9604C35.3051 12.4763 34.315 10.0961 32.5584 8.33952C30.8019 6.58297 28.4216 5.59287 25.9375 5.58545Z" fill="#3F3B34"/>
<path d="M28.1688 10.8979C27.8146 10.8979 27.4684 11.003 27.174 11.1997C26.8795 11.3965 26.65 11.6761 26.5145 12.0033C26.3789 12.3305 26.3435 12.6906 26.4126 13.0379C26.4817 13.3853 26.6522 13.7043 26.9026 13.9547C27.1531 14.2052 27.4721 14.3757 27.8195 14.4448C28.1668 14.5139 28.5268 14.4784 28.854 14.3429C29.1812 14.2074 29.4609 13.9779 29.6576 13.6834C29.8544 13.3889 29.9594 13.0427 29.9594 12.6886C29.9594 12.4534 29.9131 12.2206 29.8231 12.0033C29.7331 11.7861 29.6012 11.5887 29.435 11.4224C29.2687 11.2561 29.0713 11.1242 28.854 11.0343C28.6368 10.9443 28.4039 10.8979 28.1688 10.8979Z" fill="#3F3B34"/>
<path d="M20.0843 15.4199C21.1773 15.4193 22.246 15.7429 23.155 16.3498C24.0641 16.9566 24.7727 17.8195 25.1913 18.8292C25.6099 19.8389 25.7195 20.95 25.5064 22.022C25.2934 23.0941 24.7671 24.0788 23.9942 24.8517C23.2213 25.6246 22.2366 26.1508 21.1646 26.3639C20.0925 26.577 18.9814 26.4673 17.9717 26.0488C16.962 25.6302 16.0991 24.9216 15.4923 24.0125C14.8854 23.1035 14.5618 22.0348 14.5625 20.9418C14.5649 19.4781 15.1475 18.075 16.1825 17.04C17.2175 16.005 18.6206 15.4224 20.0843 15.4199ZM20.0843 12.9199C18.4977 12.923 16.9475 13.3964 15.6298 14.2802C14.3121 15.164 13.286 16.4186 12.681 17.8854C12.0761 19.3523 11.9196 20.9655 12.2313 22.5212C12.543 24.077 13.3088 25.5054 14.4321 26.6261C15.5553 27.7467 16.9855 28.5092 18.542 28.8172C20.0985 29.1253 21.7113 28.965 23.1768 28.3567C24.6422 27.7483 25.8944 26.7193 26.7751 25.3995C27.6558 24.0797 28.1256 22.5285 28.125 20.9418C28.1245 19.8869 27.9162 18.8424 27.5117 17.8681C27.1072 16.8938 26.5147 16.0088 25.7679 15.2638C25.0211 14.5187 24.1347 13.9282 23.1594 13.526C22.1842 13.1238 21.1392 12.9179 20.0843 12.9199Z" fill="#3F3B34"/>
</svg>
