<svg width="210" height="31" viewBox="0 0 210 31" fill="none" xmlns="http://www.w3.org/2000/svg">
<path d="M39.62 8H49.06V10.48H42.72V13.66H48.3V16.1H42.72V19.5H49.24V22H39.62V8ZM50.7866 22L54.3866 16.88L50.9666 11.9H54.3866C55.0266 12.8467 55.4466 13.5667 55.6466 14.06C55.8599 14.5533 55.9932 15.1267 56.0466 15.78H56.9266C56.9666 15.14 57.0866 14.58 57.2866 14.1C57.4999 13.6067 57.9266 12.8733 58.5666 11.9H62.0066L58.5866 16.88L62.1866 22H58.7066C58.0132 20.9867 57.5532 20.2333 57.3266 19.74C57.0999 19.2333 56.9666 18.6667 56.9266 18.04H56.0466C55.9932 18.6667 55.8532 19.2333 55.6266 19.74C55.4132 20.2467 54.9599 21 54.2666 22H50.7866ZM68.9783 22.26C67.8716 22.26 66.8716 22.0333 65.9783 21.58C65.0983 21.1133 64.4049 20.48 63.8983 19.68C63.4049 18.8667 63.1583 17.96 63.1583 16.96C63.1583 15.96 63.4049 15.06 63.8983 14.26C64.4049 13.4467 65.0983 12.8133 65.9783 12.36C66.8716 11.8933 67.8716 11.66 68.9783 11.66C70.0849 11.66 71.0783 11.8933 71.9583 12.36C72.8516 12.8133 73.5449 13.4467 74.0383 14.26C74.5449 15.06 74.7983 15.96 74.7983 16.96C74.7983 17.96 74.5449 18.8667 74.0383 19.68C73.5449 20.48 72.8516 21.1133 71.9583 21.58C71.0783 22.0333 70.0849 22.26 68.9783 22.26ZM68.9783 19.74C69.8316 19.74 70.5249 19.4867 71.0583 18.98C71.5916 18.46 71.8583 17.7867 71.8583 16.96C71.8583 16.12 71.5916 15.4467 71.0583 14.94C70.5249 14.42 69.8316 14.16 68.9783 14.16C68.1116 14.16 67.4116 14.42 66.8783 14.94C66.3449 15.4467 66.0783 16.12 66.0783 16.96C66.0783 17.7867 66.3449 18.46 66.8783 18.98C67.4116 19.4867 68.1116 19.74 68.9783 19.74ZM83.7972 21.96C83.0905 22.0267 82.5039 22.06 82.0372 22.06C81.0505 22.06 80.2705 21.9333 79.6972 21.68C79.1239 21.4133 78.7105 21.0067 78.4572 20.46C78.2039 19.9 78.0772 19.1533 78.0772 18.22V14.36H76.2972V11.92C76.9239 11.92 77.3972 11.84 77.7172 11.68C78.0505 11.5067 78.2772 11.22 78.3972 10.82C78.5305 10.4067 78.5972 9.80667 78.5972 9.02H81.4772C81.4239 9.76667 81.2639 10.34 80.9972 10.74C80.7439 11.1267 80.2772 11.5133 79.5972 11.9L80.0372 12.68C80.6105 12.36 81.1505 12.1467 81.6572 12.04C82.1639 11.9333 82.8572 11.8867 83.7372 11.9V14.36H81.0372V18.1C81.0372 18.62 81.1439 18.9867 81.3572 19.2C81.5705 19.4133 81.9705 19.52 82.5572 19.52C82.8239 19.52 83.2372 19.4867 83.7972 19.42V21.96ZM86.3745 11.9H89.3345V22H86.3745V11.9ZM86.1145 7.18H89.5345V10.18H86.1145V7.18ZM97.3525 22.26C96.2858 22.26 95.3258 22.0333 94.4725 21.58C93.6192 21.1133 92.9458 20.48 92.4525 19.68C91.9725 18.8667 91.7325 17.96 91.7325 16.96C91.7325 15.96 91.9725 15.06 92.4525 14.26C92.9458 13.4467 93.6192 12.8133 94.4725 12.36C95.3258 11.8933 96.2858 11.66 97.3525 11.66C98.2992 11.66 99.1658 11.84 99.9525 12.2C100.753 12.56 101.413 13.06 101.933 13.7C102.453 14.34 102.786 15.0733 102.933 15.9H100.133C99.9325 15.3533 99.5925 14.9267 99.1125 14.62C98.6458 14.3133 98.0992 14.16 97.4725 14.16C96.6458 14.16 95.9658 14.42 95.4325 14.94C94.9125 15.46 94.6525 16.1333 94.6525 16.96C94.6525 17.7867 94.9125 18.46 95.4325 18.98C95.9525 19.4867 96.6325 19.74 97.4725 19.74C98.1392 19.74 98.7125 19.5733 99.1925 19.24C99.6858 18.8933 100.019 18.4267 100.193 17.84H102.973C102.839 18.6933 102.513 19.46 101.993 20.14C101.473 20.8067 100.813 21.3267 100.013 21.7C99.2125 22.0733 98.3258 22.26 97.3525 22.26ZM121.849 22C121.929 21.3733 122.075 20.7933 122.289 20.26C122.515 19.7133 122.862 19.0667 123.329 18.32L122.449 17.88C121.729 19.3333 120.855 20.42 119.829 21.14C118.815 21.86 117.635 22.22 116.289 22.22C115.009 22.22 113.849 21.9133 112.809 21.3C111.782 20.6733 110.975 19.8133 110.389 18.72C109.815 17.6267 109.529 16.3933 109.529 15.02C109.529 13.6067 109.842 12.3533 110.469 11.26C111.109 10.1533 111.995 9.29333 113.129 8.68C114.275 8.05333 115.575 7.74 117.029 7.74C118.735 7.74 120.215 8.17333 121.469 9.04C122.722 9.89333 123.602 11.0733 124.109 12.58H120.909C120.522 11.94 119.989 11.44 119.309 11.08C118.629 10.7067 117.882 10.52 117.069 10.52C116.215 10.52 115.455 10.7133 114.789 11.1C114.135 11.4733 113.622 12 113.249 12.68C112.875 13.36 112.689 14.1333 112.689 15C112.689 15.8533 112.869 16.62 113.229 17.3C113.602 17.98 114.115 18.5133 114.769 18.9C115.422 19.2867 116.162 19.48 116.989 19.48C117.909 19.48 118.709 19.24 119.389 18.76C120.069 18.28 120.562 17.6133 120.869 16.76H117.609V14.56H124.349V22H121.849ZM127.351 11.9H130.151C130.138 12.3 130.078 12.6933 129.971 13.08C129.878 13.4533 129.718 13.9067 129.491 14.44L130.411 14.84C130.744 13.7867 131.178 13.0333 131.711 12.58C132.258 12.1267 132.998 11.9 133.931 11.9C134.211 11.9 134.424 11.9067 134.571 11.92V14.68C134.171 14.6533 133.884 14.64 133.711 14.64C132.484 14.64 131.611 14.9133 131.091 15.46C130.571 16.0067 130.311 16.9 130.311 18.14V22H127.351V11.9ZM141.299 22.26C140.219 22.26 139.245 22.0333 138.379 21.58C137.525 21.1133 136.852 20.48 136.359 19.68C135.879 18.88 135.639 17.9733 135.639 16.96C135.639 15.9467 135.879 15.04 136.359 14.24C136.852 13.4267 137.532 12.7933 138.399 12.34C139.265 11.8867 140.239 11.66 141.319 11.66C142.412 11.66 143.392 11.8933 144.259 12.36C145.125 12.8133 145.799 13.4467 146.279 14.26C146.759 15.06 146.999 15.9667 146.999 16.98C146.999 17.2733 146.979 17.5733 146.939 17.88H138.519C138.652 18.52 138.965 19.0333 139.459 19.42C139.965 19.8067 140.579 20 141.299 20C141.832 20 142.312 19.9 142.739 19.7C143.165 19.4867 143.512 19.1867 143.779 18.8H146.719C146.319 19.8667 145.632 20.7133 144.659 21.34C143.699 21.9533 142.579 22.26 141.299 22.26ZM144.159 16.06C144.012 15.3933 143.685 14.8667 143.179 14.48C142.672 14.0933 142.052 13.9 141.319 13.9C140.585 13.9 139.965 14.1 139.459 14.5C138.965 14.8867 138.645 15.4067 138.499 16.06H144.159ZM154.502 22.26C153.422 22.26 152.449 22.0333 151.582 21.58C150.729 21.1133 150.055 20.48 149.562 19.68C149.082 18.88 148.842 17.9733 148.842 16.96C148.842 15.9467 149.082 15.04 149.562 14.24C150.055 13.4267 150.735 12.7933 151.602 12.34C152.469 11.8867 153.442 11.66 154.522 11.66C155.615 11.66 156.595 11.8933 157.462 12.36C158.329 12.8133 159.002 13.4467 159.482 14.26C159.962 15.06 160.202 15.9667 160.202 16.98C160.202 17.2733 160.182 17.5733 160.142 17.88H151.722C151.855 18.52 152.169 19.0333 152.662 19.42C153.169 19.8067 153.782 20 154.502 20C155.035 20 155.515 19.9 155.942 19.7C156.369 19.4867 156.715 19.1867 156.982 18.8H159.922C159.522 19.8667 158.835 20.7133 157.862 21.34C156.902 21.9533 155.782 22.26 154.502 22.26ZM157.362 16.06C157.215 15.3933 156.889 14.8667 156.382 14.48C155.875 14.0933 155.255 13.9 154.522 13.9C153.789 13.9 153.169 14.1 152.662 14.5C152.169 14.8867 151.849 15.4067 151.702 16.06H157.362ZM162.605 11.9H165.525C165.498 12.2867 165.432 12.64 165.325 12.96C165.232 13.28 165.072 13.6333 164.845 14.02L165.665 14.46C166.065 13.5267 166.558 12.8333 167.145 12.38C167.745 11.9267 168.458 11.7 169.285 11.7C170.418 11.7 171.298 12.1 171.925 12.9C172.552 13.7 172.865 14.8133 172.865 16.24V22H169.905V16.76C169.905 15.9333 169.718 15.3067 169.345 14.88C168.985 14.44 168.452 14.22 167.745 14.22C167.038 14.22 166.498 14.44 166.125 14.88C165.752 15.3067 165.565 15.9333 165.565 16.76V22H162.605V11.9ZM180.771 22.26C179.691 22.26 178.718 22.0333 177.851 21.58C176.998 21.1133 176.325 20.48 175.831 19.68C175.351 18.88 175.111 17.9733 175.111 16.96C175.111 15.9467 175.351 15.04 175.831 14.24C176.325 13.4267 177.005 12.7933 177.871 12.34C178.738 11.8867 179.711 11.66 180.791 11.66C181.885 11.66 182.865 11.8933 183.731 12.36C184.598 12.8133 185.271 13.4467 185.751 14.26C186.231 15.06 186.471 15.9667 186.471 16.98C186.471 17.2733 186.451 17.5733 186.411 17.88H177.991C178.125 18.52 178.438 19.0333 178.931 19.42C179.438 19.8067 180.051 20 180.771 20C181.305 20 181.785 19.9 182.211 19.7C182.638 19.4867 182.985 19.1867 183.251 18.8H186.191C185.791 19.8667 185.105 20.7133 184.131 21.34C183.171 21.9533 182.051 22.26 180.771 22.26ZM183.631 16.06C183.485 15.3933 183.158 14.8667 182.651 14.48C182.145 14.0933 181.525 13.9 180.791 13.9C180.058 13.9 179.438 14.1 178.931 14.5C178.438 14.8867 178.118 15.4067 177.971 16.06H183.631ZM188.875 11.9H191.675C191.661 12.3 191.601 12.6933 191.495 13.08C191.401 13.4533 191.241 13.9067 191.015 14.44L191.935 14.84C192.268 13.7867 192.701 13.0333 193.235 12.58C193.781 12.1267 194.521 11.9 195.455 11.9C195.735 11.9 195.948 11.9067 196.095 11.92V14.68C195.695 14.6533 195.408 14.64 195.235 14.64C194.008 14.64 193.135 14.9133 192.615 15.46C192.095 16.0067 191.835 16.9 191.835 18.14V22H188.875V11.9ZM198.855 24.14C199.082 24.1667 199.375 24.18 199.735 24.18C200.388 24.18 200.828 24.06 201.055 23.82C201.282 23.58 201.395 23.1667 201.395 22.58V22.24L197.035 11.9H200.235C200.875 13.4333 201.342 14.6067 201.635 15.42C201.928 16.22 202.122 16.92 202.215 17.52C202.322 18.12 202.388 18.84 202.415 19.68H203.355C203.382 18.84 203.442 18.12 203.535 17.52C203.642 16.92 203.842 16.22 204.135 15.42C204.428 14.6067 204.895 13.4333 205.535 11.9H208.735L204.355 22.28V22.96C204.355 24.28 204.028 25.2333 203.375 25.82C202.722 26.42 201.648 26.72 200.155 26.72C199.755 26.72 199.322 26.7 198.855 26.66V24.14Z" fill="#3F3B34"/>
<path d="M24.2666 3.03055C24.0873 3.07673 23.8454 3.20245 23.78 3.28198C23.7487 3.31791 23.6889 3.49494 23.6434 3.6771C23.3929 4.68543 22.9034 5.60138 22.1151 6.54556C21.4377 7.35119 20.4701 8.20044 19.4342 8.89575C19.1325 9.09844 18.6971 9.37041 18.5548 9.44738C18.4722 9.49099 18.5491 9.18311 18.7625 8.61096C19.1866 7.47435 19.2492 6.79957 19.0073 5.95802C18.828 5.32942 18.5776 4.91377 18.1563 4.53148C17.4477 3.89519 16.4659 3.60526 15.0087 3.60526C13.6882 3.6027 12.3534 3.81565 11.2236 4.20051C10.6146 4.4109 9.31397 4.93686 9.34243 4.96509C9.35097 4.97022 9.48757 4.99588 9.64979 5.02153C10.791 5.20113 11.8583 5.59112 12.9169 6.21459C13.8277 6.75082 14.3684 7.2537 14.7355 7.91565C15.0059 8.40057 15.1226 8.92397 15.003 9.12666C14.9376 9.24212 14.8124 9.27547 14.6302 9.23186C14.2915 9.14976 13.896 8.84187 12.8686 7.85407C11.7814 6.80727 11.3602 6.48655 10.6829 6.1915C9.61849 5.72454 8.59964 5.66809 7.78 6.03242C7.37872 6.20946 7.05144 6.43524 6.58185 6.85601C5.99559 7.38198 4.58399 8.87523 4.39901 9.16772C4.38762 9.18567 4.46162 9.17798 4.59538 9.14976C5.05073 9.05226 5.50324 9.01634 6.25741 9.01377C7.22788 9.01121 7.82269 9.07535 8.75332 9.28317C10.0625 9.57053 11.4627 10.1222 12.5327 10.7687C13.0194 11.0638 13.2528 11.3383 13.2215 11.582C13.2044 11.7309 13.1162 11.813 12.9169 11.8643C12.4815 11.9772 11.6932 11.7283 10.2247 11.0125C8.61671 10.2274 7.79423 9.97335 6.53347 9.87072C5.51462 9.79118 4.69498 9.87585 4.09733 10.1273C3.37446 10.4326 2.74551 11.1869 2.13647 12.48C1.97141 12.829 1.70389 13.4807 1.70389 13.5371C1.70389 13.5525 1.8035 13.5192 1.92587 13.4653C2.37269 13.26 2.61744 13.2036 3.26916 13.1446C4.68929 13.0188 6.08666 13.0034 7.20227 13.1035C9.09198 13.2754 10.4495 13.6731 10.6573 14.117C10.7113 14.2324 10.7056 14.2991 10.643 14.4274C10.6032 14.507 10.5577 14.548 10.4524 14.5942C10.3214 14.6506 10.2844 14.6558 9.87178 14.6532C9.41358 14.6481 9.45911 14.6532 7.33319 14.3607C5.62846 14.1272 5.13042 14.0785 4.45877 14.0785C4.14856 14.0785 3.78997 14.0939 3.60214 14.117C2.56336 14.2401 1.78073 14.5968 1.30545 15.1638C0.804565 15.7667 0.189839 17.6756 0.0247734 19.156C-0.0179159 19.5588 -0.0292997 19.546 0.192685 19.3561C0.300831 19.2638 0.471588 19.1457 0.571197 19.0919C0.907019 18.9123 2.17347 18.3478 2.62882 18.1733C4.25955 17.5499 6.26026 17.1573 7.79423 17.1573C8.49718 17.1573 8.86146 17.224 9.18021 17.4113C9.47903 17.5858 9.51319 17.7423 9.28836 17.9373C8.88138 18.2939 8.38334 18.3863 6.62739 18.4402C5.37517 18.4761 4.73767 18.5531 3.79566 18.7737C1.79211 19.2407 0.500048 19.9796 0.26668 20.7878C0.147149 21.206 0.286601 21.8013 0.704957 22.6556C0.955401 23.1636 1.08062 23.5408 1.17738 24.0719L1.19731 24.172L1.27415 23.9949C1.57013 23.3176 2.33853 22.6402 3.71882 21.8346C4.52423 21.3651 5.12472 21.1367 5.60284 21.1162C5.85329 21.1034 5.88175 21.1085 5.97282 21.165C6.1635 21.2804 6.15496 21.5088 5.95859 21.7166C5.74799 21.9398 5.2841 22.1707 4.35062 22.5248C4.09164 22.6223 3.78713 22.748 3.67329 22.8019C3.21793 23.0225 2.54344 23.5434 2.24177 23.9051C2.0084 24.1874 1.92303 24.3516 1.9088 24.5594C1.88887 24.8288 1.95433 25.0777 2.25885 25.8936C2.42961 26.3528 2.53775 26.6889 2.56052 26.8249C2.61175 27.1636 2.55483 27.5151 2.38976 27.8435L2.31008 28L3.33746 27.7742C3.90381 27.6511 4.45592 27.5382 4.56976 27.5228C4.71491 27.5023 4.95681 27.5023 5.40932 27.5202C6.46517 27.5638 6.69285 27.5176 7.05428 27.1918C7.45271 26.83 7.66901 26.2887 7.78 25.3548C7.84546 24.8288 7.89668 24.5491 8.00768 24.1745C8.25527 23.3176 8.58825 22.6787 8.77039 22.7044C8.9383 22.7275 9.02653 23.0508 9.02653 23.6229C9.02653 24.0668 8.99807 24.331 8.87285 25.0469C8.77608 25.6113 8.68786 25.95 8.53133 26.3579C8.40611 26.6889 8.1329 27.2739 7.96499 27.5767C7.90238 27.687 7.85684 27.7793 7.86538 27.7793C7.87392 27.7793 7.92799 27.7588 7.98775 27.7306C8.18982 27.6408 8.55125 27.5484 9.10337 27.4484C10.2844 27.2329 10.7967 27.0789 11.0472 26.8608C11.2862 26.653 11.5025 26.2964 11.6619 25.8499C11.8583 25.2906 11.8924 24.8955 11.8184 24.0078C11.7444 23.1149 11.7416 21.5088 11.8156 21.1598C11.8952 20.7801 11.9692 20.7083 12.2055 20.7724C12.5584 20.8673 12.8259 21.2573 12.934 21.8346C12.9596 21.9809 12.9824 22.3298 12.9938 22.7403C13.0194 23.7486 12.9539 24.2926 12.7035 25.188C12.6096 25.5318 12.2994 26.4093 12.1571 26.7479C12.1258 26.8198 13.5146 26.3169 14.0269 26.068C14.9177 25.6396 15.4157 25.1572 15.6718 24.4824C15.7828 24.1874 15.8056 24.0309 15.8056 23.5844C15.8056 22.9019 15.6889 22.3939 15.2962 21.3343C14.9518 20.4081 14.5477 19.2458 14.4509 18.9148C14.3371 18.5197 14.3029 17.9912 14.3798 17.8552C14.4424 17.7449 14.5818 17.6705 14.7241 17.6705C15.0742 17.673 15.4271 18.022 15.7373 18.6685C15.9194 19.0534 16.4004 20.4517 16.6025 21.1983C16.9554 22.5017 16.9895 23.4228 16.7163 24.4362C16.6793 24.5748 16.6508 24.6902 16.6537 24.6928C16.6565 24.6954 16.7419 24.6415 16.8444 24.5748C18.5519 23.4459 19.3061 22.8737 19.6049 22.4812C19.7302 22.3195 19.9009 21.9783 19.9635 21.7756C20.0375 21.537 20.0375 20.9417 19.9635 20.6595C19.7444 19.8026 19.1041 18.8533 18.0937 17.886C17.3595 17.183 16.8472 16.4261 16.8444 16.0464C16.8444 15.9412 16.8586 15.9104 16.9297 15.8437C17.0123 15.7718 17.0294 15.7667 17.1802 15.777C17.6242 15.8078 18.3812 16.2516 19.0927 16.8982C20.3705 18.0605 21.1218 19.8 20.9425 21.1855C20.9312 21.2907 20.9226 21.3805 20.9255 21.3856C20.9368 21.3933 22.0268 20.3054 22.2688 20.0437C22.8749 19.3895 23.1908 18.6942 23.1908 18.0143C23.1908 17.1702 22.5363 16.2388 21.4093 15.4742C21.2243 15.3485 20.7319 15.0611 20.3164 14.8379C18.9504 14.0964 18.532 13.8193 18.293 13.4909C18.125 13.2575 18.2161 13.0548 18.5149 13.0009C19.161 12.8803 21.0336 13.4986 22.1805 14.2093C22.4907 14.4018 22.744 14.607 22.9945 14.8738C23.5153 15.4255 23.8255 15.9489 24.1414 16.8161C24.1841 16.9341 24.2296 17.0342 24.2438 17.0419C24.2581 17.0496 24.3207 16.9136 24.3805 16.7417C25.0436 14.8918 25.1773 13.2703 24.7675 11.9951C24.5825 11.4101 24.3178 10.9894 23.9166 10.6456C23.3161 10.1247 22.4964 9.81427 21.5373 9.74756C21.358 9.73474 20.8173 9.73217 20.3307 9.74243C19.8468 9.7527 19.4456 9.76039 19.4427 9.75783C19.4399 9.75526 19.5623 9.67829 19.7131 9.58849C19.8639 9.49613 20.214 9.27034 20.4872 9.08561C22.9489 7.4179 24.5028 5.47823 24.9411 3.5206C25.0123 3.21014 25.0037 3.13831 24.887 3.06133C24.7903 2.99463 24.4658 2.97923 24.2666 3.03055Z" fill="#3F3B34"/>
</svg>
