<svg width="40" height="41" viewBox="0 0 40 41" fill="none" xmlns="http://www.w3.org/2000/svg">
<path fill-rule="evenodd" clip-rule="evenodd" d="M37.8672 11.2104C38.1453 10.3292 37.8672 9.68857 36.6367 9.68857H32.5453C31.5133 9.68857 31.0367 10.2495 30.7586 10.8495C30.7586 10.8495 28.6539 15.9745 25.7148 19.2972C24.7617 20.2581 24.325 20.5784 23.8086 20.5784C23.5305 20.5784 23.1727 20.2581 23.1727 19.3776V11.169C23.1727 10.1284 22.8555 9.64795 21.9812 9.64795H15.5469C14.9109 9.64795 14.5141 10.1284 14.5141 10.6089C14.5141 11.6097 15.9836 11.8503 16.1422 14.6526V20.7417C16.1422 22.0628 15.9078 22.3042 15.3875 22.3042C13.9977 22.3042 10.6219 17.1394 8.59688 11.2542C8.20312 10.0886 7.80313 9.64795 6.77031 9.64795H2.63984C1.44844 9.64795 1.25 10.2081 1.25 10.8089C1.25 11.8901 2.63984 17.3347 7.72344 24.5409C11.0992 29.4628 15.9047 32.1081 20.2336 32.1081C22.8555 32.1081 23.1727 31.5073 23.1727 30.5065V26.7831C23.1727 25.5823 23.4109 25.3823 24.2453 25.3823C24.8406 25.3823 25.9133 25.7019 28.3359 28.0644C31.1156 30.8667 31.5922 32.1479 33.1414 32.1479H37.232C38.4234 32.1479 38.9797 31.5472 38.6617 30.3862C38.3047 29.2253 36.9539 27.544 35.2063 25.5425C34.2531 24.4222 32.8234 23.1808 32.3867 22.58C31.7914 21.7792 31.95 21.4589 32.3867 20.7386C32.3469 20.7386 37.3516 13.612 37.8672 11.2073" fill="#3F3B34"/>
</svg>
